<svg xmlns="http://www.w3.org/2000/svg" width="906" height="310">
<g stroke="none" transform="translate(-109,-242)">
	<path d="M705.07 536.27c0 8.653 7.015 15.667 15.667 15.667H999.22c8.652 0 15.666-7.014 15.666-15.666V257.788c0-8.652-7.014-15.667-15.666-15.667H720.737c-8.652 0-15.666 7.015-15.666 15.667v278.483" fill="#223a5f"/><path d="M715.532 395.737h288.944" fill="none" stroke="#fff" stroke-width="5.06054015"/><path d="M813.556 334.436h95.785" fill="none" stroke="#fff" stroke-width="5.06720665"/><path d="M861.544 541.333l.06-289.013" fill="none" stroke="#fff" stroke-width="5.026940990000001"/><path d="M802.875 369.163v-38.855c0-13.865-5.238-18.841-14.13-18.841-9.029 0-14.13 6.412-14.13 17.533v40.163h-13.476V300.48h13.476v6.54c3.397-4.972 10.201-7.98 17.269-7.98 15.957 0 24.459 10.465 24.459 30.744v39.379h-13.468M802.615 506.044v-6.803c-4.708 4.71-11.38 8.242-18.84 8.242-11.119 0-23.808-6.278-23.808-23.155 0-15.31 11.774-22.244 27.342-22.244 6.411 0 11.512.916 15.306 2.617v-5.1c0-7.456-4.58-11.644-12.952-11.644-7.062 0-12.559 1.308-17.922 4.319l-5.234-10.21c6.54-4.051 13.869-6.145 23.549-6.145 15.308 0 25.772 7.456 25.772 23.024v47.099zm0-29.305c-3.664-1.832-8.37-3.011-15.698-3.011-8.636 0-14.129 3.925-14.129 10.207 0 6.804 4.316 11.38 13.21 11.38 7.2 0 13.477-4.447 16.617-8.764v-9.812M947.608 369.163v-38.855c0-13.865-5.237-18.841-14.13-18.841-9.029 0-14.131 6.412-14.131 17.533v40.163h-13.475v-88.307l13.475-7.067v33.231c3.398-4.972 10.202-7.98 17.27-7.98 15.958 0 24.46 10.465 24.46 30.744v39.379h-13.469" fill="#fff"/><path d="M122.827 349.473v-18.838c0-5.075-.986-7.115-3.767-7.115-1.738 0-3.418.99-4.518 2.8v23.153h-5.563v-30.621h5.563v2.099c1.217-1.575 3.302-2.74 5.91-2.74 5.852 0 7.938 3.789 7.938 11.489v19.773h-5.563M148.263 350.113c-6.316 0-10.778-5.073-10.778-15.805 0-10.733 4.231-16.097 11.01-16.097 6.429 0 10.892 5.193 10.892 15.862 0 10.735-4.403 16.04-11.124 16.04zm.117-26.538c-3.479 0-5.273 3.618-5.273 10.618 0 6.999 1.853 10.555 5.329 10.555s5.332-4.199 5.332-10.555c0-6.941-1.913-10.618-5.388-10.618M178.39 350.113c-6.317 0-10.778-5.073-10.778-15.805 0-10.733 4.233-16.097 11.012-16.097 6.43 0 10.89 5.193 10.89 15.862 0 10.735-4.403 16.04-11.125 16.04zm.117-26.538c-3.476 0-5.272 3.618-5.272 10.618 0 6.999 1.853 10.555 5.332 10.555 3.474 0 5.328-4.199 5.328-10.555 0-6.941-1.914-10.618-5.388-10.618M212.575 324.861c-1.102-.642-2.146-.934-3.882-.934-1.565 0-3.072.524-4.345 2.393v23.153h-5.565v-30.621h5.565v2.099c1.216-1.575 3.13-2.74 5.39-2.74 1.91 0 3.243.466 4.17 1.05l-1.333 5.6M234.704 349.473v-2.04c-1.45 1.574-2.955 2.68-5.677 2.68-5.504 0-9.156-4.082-9.156-16.272 0-10.205 3.532-15.63 9.562-15.63 2.142 0 3.764.7 5.271 2.276v-10.618l5.564-2.916v42.52zm0-23.272c-1.216-1.866-3.072-2.741-4.808-2.741-2.9 0-4.404 2.86-4.404 10.09 0 7.991 1.504 11.315 4.693 11.315 1.854 0 3.532-1.166 4.519-2.798V326.2M249.595 331.041v-5.833h12.746v5.833h-12.746M285.516 349.473v-18.838c0-5.075-.984-7.115-3.767-7.115-1.736 0-3.418.99-4.52 2.8v23.153h-5.56V309.87l5.56-2.916v13.998c1.219-1.575 3.304-2.74 5.912-2.74 5.852 0 7.938 3.789 7.938 11.489v19.773h-5.563M310.952 350.113c-6.319 0-10.777-5.073-10.777-15.805 0-10.733 4.23-16.097 11.009-16.097 6.43 0 10.89 5.193 10.89 15.862 0 10.735-4.4 16.04-11.122 16.04zm.115-26.538c-3.476 0-5.272 3.618-5.272 10.618 0 6.999 1.853 10.555 5.332 10.555 3.477 0 5.328-4.199 5.328-10.555 0-6.941-1.914-10.618-5.388-10.618M331.637 349.473V309.87l5.563-2.916v42.52h-5.563M348.088 349.473V309.87l5.564-2.916v42.52h-5.564M377.29 349.473v-2.1c-1.566 1.808-3.534 2.74-6.257 2.74-4.458 0-8.285-3.38-8.285-10.262 0-6.651 4.112-10.031 9.907-10.031 1.856 0 3.418.407 4.634.988v-2.973c0-2.974-.984-4.375-3.94-4.375-1.913 0-3.648.527-5.965 1.925l-2.377-4.26c2.784-1.864 5.966-2.914 8.749-2.914 6.548 0 9.099 2.333 9.099 9.156v22.106zm0-13.414c-1.334-.819-2.49-1.167-4.578-1.167-2.605 0-4.401 1.516-4.401 4.841 0 3.616 1.448 5.307 3.824 5.307s4.113-1.05 5.154-2.857v-6.124M406.955 349.473v-18.838c0-5.075-.984-7.115-3.764-7.115-1.739 0-3.422.99-4.519 2.8v23.153h-5.563v-30.621h5.563v2.099c1.212-1.575 3.3-2.74 5.905-2.74 5.854 0 7.942 3.789 7.942 11.489v19.773h-5.564M436.447 349.473v-2.04c-1.451 1.574-2.955 2.68-5.68 2.68-5.502 0-9.154-4.082-9.154-16.272 0-10.205 3.536-15.63 9.556-15.63 2.146 0 3.77.7 5.278 2.276v-10.618l5.56-2.916v42.52zm0-23.272c-1.216-1.866-3.072-2.741-4.808-2.741-2.9 0-4.408 2.86-4.408 10.09 0 7.991 1.508 11.315 4.696 11.315 1.853 0 3.533-1.166 4.52-2.798V326.2M459.912 350.113c-3.247 0-6.661-1.282-9.327-3.264l2.143-4.666c2.78 1.75 5.039 2.625 7.067 2.625 2.49 0 3.998-1.343 3.998-3.324 0-2.16-1.622-3.267-5.852-5.717-3.766-2.216-6.312-4.199-6.312-9.042 0-5.306 3.183-8.514 8.688-8.514 3.07 0 6.024 1.106 8.288 2.86l-2.264 4.722c-1.968-1.4-4.23-2.273-6.144-2.273-2.082 0-3.009 1.165-3.009 2.681 0 1.868.868 2.799 4.983 5.194 4.577 2.678 7.185 4.664 7.185 9.678 0 5.832-3.535 9.04-9.444 9.04" fill="#231f20"/><path d="M506.596 349.473v-2.1c-1.567 1.808-3.537 2.74-6.26 2.74-4.46 0-8.284-3.38-8.284-10.262 0-6.651 4.113-10.031 9.905-10.031 1.856 0 3.42.407 4.639.988v-2.973c0-2.974-.987-4.375-3.944-4.375-1.91 0-3.65.527-5.967 1.925l-2.376-4.26c2.782-1.864 5.968-2.914 8.75-2.914 6.546 0 9.097 2.333 9.097 9.156v22.106zm0-13.414c-1.335-.819-2.495-1.167-4.579-1.167-2.609 0-4.405 1.516-4.405 4.841 0 3.616 1.45 5.307 3.824 5.307 2.377 0 4.117-1.05 5.16-2.857v-6.124M536.199 324.861c-1.1-.642-2.142-.934-3.88-.934-1.562 0-3.07.524-4.346 2.393v23.153h-5.562v-30.621h5.562v2.099c1.219-1.575 3.13-2.74 5.388-2.74 1.915 0 3.244.466 4.175 1.05l-1.337 5.6M553.985 350.113c-6.313 0-10.601-5.073-10.601-15.805 0-10.733 4.056-16.097 10.836-16.097 4.401 0 6.835 2.39 8.572 5.364l-3.993 3.5c-1.568-2.506-2.784-3.5-4.755-3.5-3.532 0-5.041 3.91-5.041 10.618 0 6.472 1.566 10.555 5.217 10.555 1.853 0 3.128-.99 4.632-3.383l4.003 3.326c-2.032 3.208-4.463 5.422-8.87 5.422M585.737 349.473v-18.838c0-5.075-.985-7.115-3.768-7.115-1.736 0-3.416.99-4.513 2.8v23.153h-5.57V309.87l5.57-2.916v13.998c1.212-1.575 3.3-2.74 5.905-2.74 5.852 0 7.94 3.789 7.94 11.489v19.773h-5.564M604.51 314.068c-1.913 0-3.48-1.575-3.48-3.439 0-1.925 1.567-3.5 3.48-3.5 1.851 0 3.42 1.575 3.42 3.5 0 1.864-1.569 3.439-3.42 3.439zm-2.782 35.405v-30.621h5.563v30.621h-5.563M638.347 336.059h-15.934c.348 6.065 2.49 8.689 5.738 8.689 2.546 0 3.762-.64 5.5-2.273l3.42 3.556c-2.082 2.333-5.158 4.082-9.039 4.082-7.244 0-11.183-6.18-11.183-15.805 0-10.733 4.406-16.097 10.836-16.097 6.084 0 10.716 5.193 10.716 15.862 0 .528 0 1.402-.054 1.986zm-10.779-12.599c-2.836 0-4.635 2.508-5.099 7.757h10.258c-.175-4.549-2.03-7.757-5.159-7.757M657.993 312.028c-2.729 0-3.534.993-3.534 3.267v3.557h4.978v5.25h-4.978v25.371h-5.564v-25.37h-3.071v-5.251h3.07v-4.316c0-5.015 2.898-7.407 6.837-7.407 1.914 0 3.304.176 4.576.582v4.666c-.692-.232-1.504-.349-2.314-.349" fill="#223a5f"/><path d="M877.877 511.396h123.62c.424-.001.496-.212.16-.47l-14.668-11.31c-.336-.261-.95-.48-1.378-.48h-91.946c-.424 0-1.041.21-1.376.48l-14.574 11.307c-.339.264-.264.473.162.473M895.625 497.637h88.126c2.125 0 3.849-1.714 3.849-3.822v-56.982c0-2.109-1.724-3.822-3.85-3.822h-88.125c-2.128 0-3.853 1.713-3.853 3.822v56.982c-.001 2.106 1.724 3.822 3.853 3.822zm2.47-54.401c0-2.084 1.701-3.77 3.797-3.77h75.587c2.1 0 3.8 1.691 3.8 3.77v44.937c0 2.096-1.703 3.774-3.8 3.774h-75.587c-2.097 0-3.797-1.687-3.797-3.774v-44.937M1001.315 512.455H949.94c-.428 0-.772.038-.768.093.004.028.004.067.004.096 0 1.51-1.293 2.732-2.889 2.732h-13.204c-1.596 0-2.888-1.223-2.888-2.732l.001-.096c.003-.055-.338-.093-.762-.093h-51.379c-.424 0-.77.337-.77.734v.744c0 2.424 2.391 4.396 5.34 4.396h114.12c2.95 0 5.34-1.972 5.34-4.396v-.744c0-.394-.345-.734-.771-.734" fill="#fff"/><path d="M919.663 482.572v-28.37h23.494c.04.009.074.031.115.031.043 0 .088-.024.132-.032h18.055l-.023 9.92 1.637.048v-10.777a.812.812 0 00-.809-.813h-18.51l-2.47-5.007a.805.805 0 00-.721-.448h-18.994a.802.802 0 00-.72.448l-2.716 5.467c-.028.058.003.117-.012.176-.016.062-.074.106-.074.177v29.993c0 .446.364.81.809.81h25.072l.013-1.623h-24.278" fill="#fff"/><path d="M939.968 473.504h1.545v-3.09h-1.545zm1.545-4.636v1.545h3.091v-1.545zm3.091 1.545v1.546h1.547v-1.546zm3.09 1.546h-1.543v1.545h1.544v3.09h1.545V461.14h-1.545zm1.546-12.363v1.545h3.09v-1.545zm-6.181 15.453v-1.545h-1.546v1.545zm1.545 3.091v-3.09h-1.545v3.09zm1.547 1.545v-1.545h-1.547v1.545zm1.544 1.546v-1.546h-1.544v1.546zm1.545 3.09v-3.09h-1.545v3.09zm10.819-15.453v-1.545h-3.091v-1.547h-3.092v-4.635h-1.545v10.818h1.545v-4.636h1.545v4.636h1.547v-3.091h1.544v4.636h1.547v-3.09h1.544v7.726h1.545v-9.272zm0 12.363h1.544v-3.091h-1.544zm-1.547 3.09h1.547v-3.09h-1.547v3.09" fill="#fff"/>
</g>
</svg>