<svg xmlns="http://www.w3.org/2000/svg" width="310" height="310">
<g stroke="none" transform="translate(-705,-242)">
	<path d="M705.07 536.27c0 8.653 7.015 15.667 15.667 15.667H999.22c8.652 0 15.666-7.014 15.666-15.666V257.788c0-8.652-7.014-15.667-15.666-15.667H720.737c-8.652 0-15.666 7.015-15.666 15.667v278.483" fill="#223a5f"/><path d="M715.532 395.737h288.944" fill="none" stroke="#fff" stroke-width="5.06054015"/><path d="M813.556 334.436h95.785" fill="none" stroke="#fff" stroke-width="5.06720665"/><path d="M861.544 541.333l.06-289.013" fill="none" stroke="#fff" stroke-width="5.026940990000001"/><path d="M802.875 369.163v-38.855c0-13.865-5.238-18.841-14.13-18.841-9.029 0-14.13 6.412-14.13 17.533v40.163h-13.476V300.48h13.476v6.54c3.397-4.972 10.201-7.98 17.269-7.98 15.957 0 24.459 10.465 24.459 30.744v39.379h-13.468M802.615 506.044v-6.803c-4.708 4.71-11.38 8.242-18.84 8.242-11.119 0-23.808-6.278-23.808-23.155 0-15.31 11.774-22.244 27.342-22.244 6.411 0 11.512.916 15.306 2.617v-5.1c0-7.456-4.58-11.644-12.952-11.644-7.062 0-12.559 1.308-17.922 4.319l-5.234-10.21c6.54-4.051 13.869-6.145 23.549-6.145 15.308 0 25.772 7.456 25.772 23.024v47.099zm0-29.305c-3.664-1.832-8.37-3.011-15.698-3.011-8.636 0-14.129 3.925-14.129 10.207 0 6.804 4.316 11.38 13.21 11.38 7.2 0 13.477-4.447 16.617-8.764v-9.812M947.608 369.163v-38.855c0-13.865-5.237-18.841-14.13-18.841-9.029 0-14.131 6.412-14.131 17.533v40.163h-13.475v-88.307l13.475-7.067v33.231c3.398-4.972 10.202-7.98 17.27-7.98 15.958 0 24.46 10.465 24.46 30.744v39.379h-13.469" fill="#fff"/><path d="M877.877 511.396h123.62c.424-.001.496-.212.16-.47l-14.668-11.31c-.336-.261-.95-.48-1.378-.48h-91.946c-.424 0-1.041.21-1.376.48l-14.574 11.307c-.339.264-.264.473.162.473M895.625 497.637h88.126c2.125 0 3.849-1.714 3.849-3.822v-56.982c0-2.109-1.724-3.822-3.85-3.822h-88.125c-2.128 0-3.853 1.713-3.853 3.822v56.982c-.001 2.106 1.724 3.822 3.853 3.822zm2.47-54.401c0-2.084 1.701-3.77 3.797-3.77h75.587c2.1 0 3.8 1.691 3.8 3.77v44.937c0 2.096-1.703 3.774-3.8 3.774h-75.587c-2.097 0-3.797-1.687-3.797-3.774v-44.937M1001.315 512.455H949.94c-.428 0-.772.038-.768.093.004.028.004.067.004.096 0 1.51-1.293 2.732-2.889 2.732h-13.204c-1.596 0-2.888-1.223-2.888-2.732l.001-.096c.003-.055-.338-.093-.762-.093h-51.379c-.424 0-.77.337-.77.734v.744c0 2.424 2.391 4.396 5.34 4.396h114.12c2.95 0 5.34-1.972 5.34-4.396v-.744c0-.394-.345-.734-.771-.734" fill="#fff"/><path d="M919.663 482.572v-28.37h23.494c.04.009.074.031.115.031.043 0 .088-.024.132-.032h18.055l-.023 9.92 1.637.048v-10.777a.812.812 0 00-.809-.813h-18.51l-2.47-5.007a.805.805 0 00-.721-.448h-18.994a.802.802 0 00-.72.448l-2.716 5.467c-.028.058.003.117-.012.176-.016.062-.074.106-.074.177v29.993c0 .446.364.81.809.81h25.072l.013-1.623h-24.278" fill="#fff"/><path d="M939.968 473.504h1.545v-3.09h-1.545zm1.545-4.636v1.545h3.091v-1.545zm3.091 1.545v1.546h1.547v-1.546zm3.09 1.546h-1.543v1.545h1.544v3.09h1.545V461.14h-1.545zm1.546-12.363v1.545h3.09v-1.545zm-6.181 15.453v-1.545h-1.546v1.545zm1.545 3.091v-3.09h-1.545v3.09zm1.547 1.545v-1.545h-1.547v1.545zm1.544 1.546v-1.546h-1.544v1.546zm1.545 3.09v-3.09h-1.545v3.09zm10.819-15.453v-1.545h-3.091v-1.547h-3.092v-4.635h-1.545v10.818h1.545v-4.636h1.545v4.636h1.547v-3.091h1.544v4.636h1.547v-3.09h1.544v7.726h1.545v-9.272zm0 12.363h1.544v-3.091h-1.544zm-1.547 3.09h1.547v-3.09h-1.547v3.09" fill="#fff"/>
</g>
</svg>