<svg xmlns="http://www.w3.org/2000/svg" width="552" height="43">
<g stroke="none" transform="translate(-108,-307)">
	<path d="M122.827 349.473v-18.838c0-5.075-.986-7.115-3.767-7.115-1.738 0-3.418.99-4.518 2.8v23.153h-5.563v-30.621h5.563v2.099c1.217-1.575 3.302-2.74 5.91-2.74 5.852 0 7.938 3.789 7.938 11.489v19.773h-5.563M148.263 350.113c-6.316 0-10.778-5.073-10.778-15.805 0-10.733 4.231-16.097 11.01-16.097 6.429 0 10.892 5.193 10.892 15.862 0 10.735-4.403 16.04-11.124 16.04zm.117-26.538c-3.479 0-5.273 3.618-5.273 10.618 0 6.999 1.853 10.555 5.329 10.555s5.332-4.199 5.332-10.555c0-6.941-1.913-10.618-5.388-10.618M178.39 350.113c-6.317 0-10.778-5.073-10.778-15.805 0-10.733 4.233-16.097 11.012-16.097 6.43 0 10.89 5.193 10.89 15.862 0 10.735-4.403 16.04-11.125 16.04zm.117-26.538c-3.476 0-5.272 3.618-5.272 10.618 0 6.999 1.853 10.555 5.332 10.555 3.474 0 5.328-4.199 5.328-10.555 0-6.941-1.914-10.618-5.388-10.618M212.575 324.861c-1.102-.642-2.146-.934-3.882-.934-1.565 0-3.072.524-4.345 2.393v23.153h-5.565v-30.621h5.565v2.099c1.216-1.575 3.13-2.74 5.39-2.74 1.91 0 3.243.466 4.17 1.05l-1.333 5.6M234.704 349.473v-2.04c-1.45 1.574-2.955 2.68-5.677 2.68-5.504 0-9.156-4.082-9.156-16.272 0-10.205 3.532-15.63 9.562-15.63 2.142 0 3.764.7 5.271 2.276v-10.618l5.564-2.916v42.52zm0-23.272c-1.216-1.866-3.072-2.741-4.808-2.741-2.9 0-4.404 2.86-4.404 10.09 0 7.991 1.504 11.315 4.693 11.315 1.854 0 3.532-1.166 4.519-2.798V326.2M249.595 331.041v-5.833h12.746v5.833h-12.746M285.516 349.473v-18.838c0-5.075-.984-7.115-3.767-7.115-1.736 0-3.418.99-4.52 2.8v23.153h-5.56V309.87l5.56-2.916v13.998c1.219-1.575 3.304-2.74 5.912-2.74 5.852 0 7.938 3.789 7.938 11.489v19.773h-5.563M310.952 350.113c-6.319 0-10.777-5.073-10.777-15.805 0-10.733 4.23-16.097 11.009-16.097 6.43 0 10.89 5.193 10.89 15.862 0 10.735-4.4 16.04-11.122 16.04zm.115-26.538c-3.476 0-5.272 3.618-5.272 10.618 0 6.999 1.853 10.555 5.332 10.555 3.477 0 5.328-4.199 5.328-10.555 0-6.941-1.914-10.618-5.388-10.618M331.637 349.473V309.87l5.563-2.916v42.52h-5.563M348.088 349.473V309.87l5.564-2.916v42.52h-5.564M377.29 349.473v-2.1c-1.566 1.808-3.534 2.74-6.257 2.74-4.458 0-8.285-3.38-8.285-10.262 0-6.651 4.112-10.031 9.907-10.031 1.856 0 3.418.407 4.634.988v-2.973c0-2.974-.984-4.375-3.94-4.375-1.913 0-3.648.527-5.965 1.925l-2.377-4.26c2.784-1.864 5.966-2.914 8.749-2.914 6.548 0 9.099 2.333 9.099 9.156v22.106zm0-13.414c-1.334-.819-2.49-1.167-4.578-1.167-2.605 0-4.401 1.516-4.401 4.841 0 3.616 1.448 5.307 3.824 5.307s4.113-1.05 5.154-2.857v-6.124M406.955 349.473v-18.838c0-5.075-.984-7.115-3.764-7.115-1.739 0-3.422.99-4.519 2.8v23.153h-5.563v-30.621h5.563v2.099c1.212-1.575 3.3-2.74 5.905-2.74 5.854 0 7.942 3.789 7.942 11.489v19.773h-5.564M436.447 349.473v-2.04c-1.451 1.574-2.955 2.68-5.68 2.68-5.502 0-9.154-4.082-9.154-16.272 0-10.205 3.536-15.63 9.556-15.63 2.146 0 3.77.7 5.278 2.276v-10.618l5.56-2.916v42.52zm0-23.272c-1.216-1.866-3.072-2.741-4.808-2.741-2.9 0-4.408 2.86-4.408 10.09 0 7.991 1.508 11.315 4.696 11.315 1.853 0 3.533-1.166 4.52-2.798V326.2M459.912 350.113c-3.247 0-6.661-1.282-9.327-3.264l2.143-4.666c2.78 1.75 5.039 2.625 7.067 2.625 2.49 0 3.998-1.343 3.998-3.324 0-2.16-1.622-3.267-5.852-5.717-3.766-2.216-6.312-4.199-6.312-9.042 0-5.306 3.183-8.514 8.688-8.514 3.07 0 6.024 1.106 8.288 2.86l-2.264 4.722c-1.968-1.4-4.23-2.273-6.144-2.273-2.082 0-3.009 1.165-3.009 2.681 0 1.868.868 2.799 4.983 5.194 4.577 2.678 7.185 4.664 7.185 9.678 0 5.832-3.535 9.04-9.444 9.04" fill="#231f20"/><path d="M506.596 349.473v-2.1c-1.567 1.808-3.537 2.74-6.26 2.74-4.46 0-8.284-3.38-8.284-10.262 0-6.651 4.113-10.031 9.905-10.031 1.856 0 3.42.407 4.639.988v-2.973c0-2.974-.987-4.375-3.944-4.375-1.91 0-3.65.527-5.967 1.925l-2.376-4.26c2.782-1.864 5.968-2.914 8.75-2.914 6.546 0 9.097 2.333 9.097 9.156v22.106zm0-13.414c-1.335-.819-2.495-1.167-4.579-1.167-2.609 0-4.405 1.516-4.405 4.841 0 3.616 1.45 5.307 3.824 5.307 2.377 0 4.117-1.05 5.16-2.857v-6.124M536.199 324.861c-1.1-.642-2.142-.934-3.88-.934-1.562 0-3.07.524-4.346 2.393v23.153h-5.562v-30.621h5.562v2.099c1.219-1.575 3.13-2.74 5.388-2.74 1.915 0 3.244.466 4.175 1.05l-1.337 5.6M553.985 350.113c-6.313 0-10.601-5.073-10.601-15.805 0-10.733 4.056-16.097 10.836-16.097 4.401 0 6.835 2.39 8.572 5.364l-3.993 3.5c-1.568-2.506-2.784-3.5-4.755-3.5-3.532 0-5.041 3.91-5.041 10.618 0 6.472 1.566 10.555 5.217 10.555 1.853 0 3.128-.99 4.632-3.383l4.003 3.326c-2.032 3.208-4.463 5.422-8.87 5.422M585.737 349.473v-18.838c0-5.075-.985-7.115-3.768-7.115-1.736 0-3.416.99-4.513 2.8v23.153h-5.57V309.87l5.57-2.916v13.998c1.212-1.575 3.3-2.74 5.905-2.74 5.852 0 7.94 3.789 7.94 11.489v19.773h-5.564M604.51 314.068c-1.913 0-3.48-1.575-3.48-3.439 0-1.925 1.567-3.5 3.48-3.5 1.851 0 3.42 1.575 3.42 3.5 0 1.864-1.569 3.439-3.42 3.439zm-2.782 35.405v-30.621h5.563v30.621h-5.563M638.347 336.059h-15.934c.348 6.065 2.49 8.689 5.738 8.689 2.546 0 3.762-.64 5.5-2.273l3.42 3.556c-2.082 2.333-5.158 4.082-9.039 4.082-7.244 0-11.183-6.18-11.183-15.805 0-10.733 4.406-16.097 10.836-16.097 6.084 0 10.716 5.193 10.716 15.862 0 .528 0 1.402-.054 1.986zm-10.779-12.599c-2.836 0-4.635 2.508-5.099 7.757h10.258c-.175-4.549-2.03-7.757-5.159-7.757M657.993 312.028c-2.729 0-3.534.993-3.534 3.267v3.557h4.978v5.25h-4.978v25.371h-5.564v-25.37h-3.071v-5.251h3.07v-4.316c0-5.015 2.898-7.407 6.837-7.407 1.914 0 3.304.176 4.576.582v4.666c-.692-.232-1.504-.349-2.314-.349" fill="#223a5f"/>
</g>
</svg>